# xmcd
#
# Track frame offsets:
#	150
#	12834
#	26402
#	39558
#	52785
#	67201
#	81521
#	95308
#	108974
#	120550
#	134560
#	146406
#	158891
#	171244
#	185382
#	199220
#	212444
#	226924
#	238631
#	251267
#	263136
#	276365
#	289129
#
# Disc length: 4014 seconds
#
# Revision: 2
# Processed by: cddbd v1.5.2PL0 Copyright (c) Steve Scherf et al.
# Submitted via: EasyCDDAExtractor 11.1.0.1
#
DISCID=450fac17
DTITLE=Blind Blake - All The Published Sides - Disc 1
DYEAR=2003
DGENRE=Blues
TTITLE0=Dying Blues (1926)
TTITLE1=Ashley St Blues (1926)
TTITLE2=Early Morning Blues (1926)
TTITLE3=West Coast Blues (1926)
TTITLE4=West Coast Blues (alternate take) (1926)
TTITLE5=West Coast Blues (alternate take 2) 1926
TTITLE6=Early Morning Blues (1926)
TTITLE7=Early Morning Blues (alternate take) (1926)
TTITLE8=Too Tight (1926)
TTITLE9=Blake's Worried Blues (1926)
TTITLE10=Come On Boys Let's Do That Messin' Around (1926)
TTITLE11=Come On Boys Let's Do That Messin' Around (alternate take) (1926)
TTITLE12=Tampa Bound (1926)
TTITLE13=Skeedle Loo Doo Blues (1926)
TTITLE14=Skeedle Loo Doo Blues (alternate take) (1926)
TTITLE15=Stonewall Street Blues (alternate take 2) (1926)
TTITLE16=State Street Men Blues (1926)
TTITLE17=Down The Country (1926)
TTITLE18=Back Biting Bee Blues (1926)
TTITLE19=Wilson Dam (1926)
TTITLE20=Buck-Town Blues (1927)
TTITLE21=Black Dog Blues (1927)
TTITLE22=One Time Blues (1927)
EXTD=
EXTT0=
EXTT1=
EXTT2=
EXTT3=
EXTT4=
EXTT5=
EXTT6=
EXTT7=
EXTT8=
EXTT9=
EXTT10=
EXTT11=
EXTT12=
EXTT13=
EXTT14=
EXTT15=
EXTT16=
EXTT17=
EXTT18=
EXTT19=
EXTT20=
EXTT21=
EXTT22=
PLAYORDER=
